<svg width="14" height="14" viewBox="0 0 14 14" fill="none" xmlns="http://www.w3.org/2000/svg">
<path d="M7.79333 0.280021C7.57556 0.0933542 7.31111 2.09808e-05 7 2.09808e-05C6.68889 2.09808e-05 6.42444 0.0933542 6.20667 0.280021L0 5.88002V11.9467C0 12.4756 0.178889 12.9189 0.536667 13.2767C0.894444 13.6345 1.33778 13.8134 1.86667 13.8134H12.1333C12.6622 13.8134 13.1056 13.6345 13.4633 13.2767C13.8211 12.9189 14 12.4756 14 11.9467V5.88002L7.79333 0.280021ZM8.77333 12.6467H5.27333V9.70669C5.27333 9.24002 5.43667 8.83558 5.76333 8.49335C6.09 8.15113 6.50222 7.98002 7 7.98002C7.49778 7.98002 7.91778 8.15113 8.26 8.49335C8.60222 8.83558 8.77333 9.24002 8.77333 9.70669V12.6467ZM12.8333 11.9467C12.8333 12.1645 12.7633 12.3356 12.6233 12.46C12.4833 12.5845 12.32 12.6467 12.1333 12.6467H9.94V9.70669C9.90889 8.92891 9.61333 8.25224 9.05333 7.67669C8.49333 7.10113 7.80889 6.81335 7 6.81335C6.19111 6.81335 5.50667 7.10113 4.94667 7.67669C4.38667 8.25224 4.10667 8.94447 4.10667 9.75335V12.6467H1.86667C1.68 12.6467 1.51667 12.5845 1.37667 12.46C1.23667 12.3356 1.16667 12.1645 1.16667 11.9467V6.39335L7 1.16669L12.8333 6.39335V11.9467Z" fill="#3BB77E"/>
</svg>
