<svg width="30" height="30" viewBox="0 0 30 30" fill="none" xmlns="http://www.w3.org/2000/svg">
<rect width="30" height="30" rx="15" fill="#3BB77E"/>
<path d="M15 12.8047C16.4766 12.8047 17.6953 14.0234 17.6953 15.5C17.6953 17 16.4766 18.1953 15 18.1953C13.5 18.1953 12.3047 17 12.3047 15.5C12.3047 14.0234 13.5 12.8047 15 12.8047ZM15 17.2578C15.9609 17.2578 16.7344 16.4844 16.7344 15.5C16.7344 14.5391 15.9609 13.7656 15 13.7656C14.0156 13.7656 13.2422 14.5391 13.2422 15.5C13.2422 16.4844 14.0391 17.2578 15 17.2578ZM18.4219 12.7109C18.4219 13.0625 18.1406 13.3438 17.7891 13.3438C17.4375 13.3438 17.1562 13.0625 17.1562 12.7109C17.1562 12.3594 17.4375 12.0781 17.7891 12.0781C18.1406 12.0781 18.4219 12.3594 18.4219 12.7109ZM20.2031 13.3438C20.25 14.2109 20.25 16.8125 20.2031 17.6797C20.1562 18.5234 19.9688 19.25 19.3594 19.8828C18.75 20.4922 18 20.6797 17.1562 20.7266C16.2891 20.7734 13.6875 20.7734 12.8203 20.7266C11.9766 20.6797 11.25 20.4922 10.6172 19.8828C10.0078 19.25 9.82031 18.5234 9.77344 17.6797C9.72656 16.8125 9.72656 14.2109 9.77344 13.3438C9.82031 12.5 10.0078 11.75 10.6172 11.1406C11.25 10.5312 11.9766 10.3438 12.8203 10.2969C13.6875 10.25 16.2891 10.25 17.1562 10.2969C18 10.3438 18.75 10.5312 19.3594 11.1406C19.9688 11.75 20.1562 12.5 20.2031 13.3438ZM19.0781 18.5938C19.3594 17.9141 19.2891 16.2734 19.2891 15.5C19.2891 14.75 19.3594 13.1094 19.0781 12.4062C18.8906 11.9609 18.5391 11.5859 18.0938 11.4219C17.3906 11.1406 15.75 11.2109 15 11.2109C14.2266 11.2109 12.5859 11.1406 11.9062 11.4219C11.4375 11.6094 11.0859 11.9609 10.8984 12.4062C10.6172 13.1094 10.6875 14.75 10.6875 15.5C10.6875 16.2734 10.6172 17.9141 10.8984 18.5938C11.0859 19.0625 11.4375 19.4141 11.9062 19.6016C12.5859 19.8828 14.2266 19.8125 15 19.8125C15.75 19.8125 17.3906 19.8828 18.0938 19.6016C18.5391 19.4141 18.9141 19.0625 19.0781 18.5938Z" fill="white"/>
</svg>
